<mxfile host="app.diagrams.net" agent="Mozilla/5.0 (Windows NT 10.0; Win64; x64) AppleWebKit/537.36 (KHTML, like Gecko) Chrome/133.0.0.0 Safari/537.36" version="26.0.15">
  <diagram name="Page-1" id="PCS-ZmE9GDgtsUp0z-_P">
    <mxGraphModel dx="1235" dy="1755" grid="1" gridSize="10" guides="1" tooltips="1" connect="1" arrows="1" fold="1" page="1" pageScale="1" pageWidth="850" pageHeight="1100" math="0" shadow="0">
      <root>
        <mxCell id="0" />
        <mxCell id="1" parent="0" />
        <mxCell id="o5o4gVOaaan3RhJ73Huu-4" value="" style="rounded=1;whiteSpace=wrap;html=1;" parent="1" vertex="1">
          <mxGeometry x="365" y="-480" width="95" height="40" as="geometry" />
        </mxCell>
        <mxCell id="o5o4gVOaaan3RhJ73Huu-5" value="User" style="text;strokeColor=#d79b00;align=center;fillColor=#ffe6cc;html=1;verticalAlign=middle;whiteSpace=wrap;rounded=0;glass=0;shadow=1;" parent="1" vertex="1">
          <mxGeometry x="365" y="-480" width="95" height="40" as="geometry" />
        </mxCell>
        <mxCell id="o5o4gVOaaan3RhJ73Huu-22" style="edgeStyle=orthogonalEdgeStyle;rounded=0;orthogonalLoop=1;jettySize=auto;html=1;exitX=0.5;exitY=1;exitDx=0;exitDy=0;" parent="1" source="o5o4gVOaaan3RhJ73Huu-6" target="o5o4gVOaaan3RhJ73Huu-20" edge="1">
          <mxGeometry relative="1" as="geometry" />
        </mxCell>
        <mxCell id="o5o4gVOaaan3RhJ73Huu-6" value="" style="rounded=1;whiteSpace=wrap;html=1;fillColor=#fff2cc;strokeColor=#d6b656;" parent="1" vertex="1">
          <mxGeometry x="160" y="-400" width="80" height="40" as="geometry" />
        </mxCell>
        <mxCell id="1ehXIUHyFf3prWLtaNW7-3" value="" style="edgeStyle=orthogonalEdgeStyle;rounded=0;orthogonalLoop=1;jettySize=auto;html=1;" parent="1" source="o5o4gVOaaan3RhJ73Huu-7" target="1ehXIUHyFf3prWLtaNW7-2" edge="1">
          <mxGeometry relative="1" as="geometry" />
        </mxCell>
        <mxCell id="o5o4gVOaaan3RhJ73Huu-7" value="Start a journey" style="rounded=1;whiteSpace=wrap;html=1;fillColor=#fff2cc;strokeColor=#d6b656;" parent="1" vertex="1">
          <mxGeometry x="260" y="-400" width="80" height="40" as="geometry" />
        </mxCell>
        <mxCell id="o5o4gVOaaan3RhJ73Huu-8" value="Complete a trip" style="rounded=1;whiteSpace=wrap;html=1;fillColor=#fff2cc;strokeColor=#d6b656;" parent="1" vertex="1">
          <mxGeometry x="365" y="-400" width="80" height="40" as="geometry" />
        </mxCell>
        <mxCell id="o5o4gVOaaan3RhJ73Huu-9" value="&lt;font style=&quot;font-size: 10px;&quot;&gt;Connect to google calender&lt;/font&gt;" style="rounded=1;whiteSpace=wrap;html=1;fillColor=#fff2cc;strokeColor=#d6b656;" parent="1" vertex="1">
          <mxGeometry x="470" y="-400" width="80" height="40" as="geometry" />
        </mxCell>
        <mxCell id="o5o4gVOaaan3RhJ73Huu-10" value="Tourist Packages" style="rounded=1;whiteSpace=wrap;html=1;fillColor=#fff2cc;strokeColor=#d6b656;" parent="1" vertex="1">
          <mxGeometry x="570" y="-400" width="80" height="40" as="geometry" />
        </mxCell>
        <mxCell id="o5o4gVOaaan3RhJ73Huu-15" style="edgeStyle=orthogonalEdgeStyle;rounded=0;orthogonalLoop=1;jettySize=auto;html=1;exitX=0.5;exitY=1;exitDx=0;exitDy=0;entryX=0.603;entryY=0.105;entryDx=0;entryDy=0;entryPerimeter=0;" parent="1" source="o5o4gVOaaan3RhJ73Huu-5" target="o5o4gVOaaan3RhJ73Huu-8" edge="1">
          <mxGeometry relative="1" as="geometry" />
        </mxCell>
        <mxCell id="o5o4gVOaaan3RhJ73Huu-17" value="" style="endArrow=none;html=1;rounded=0;entryX=0.5;entryY=0;entryDx=0;entryDy=0;exitX=0.35;exitY=-0.035;exitDx=0;exitDy=0;exitPerimeter=0;" parent="1" source="o5o4gVOaaan3RhJ73Huu-9" target="o5o4gVOaaan3RhJ73Huu-10" edge="1">
          <mxGeometry width="50" height="50" relative="1" as="geometry">
            <mxPoint x="400" y="-230" as="sourcePoint" />
            <mxPoint x="450" y="-280" as="targetPoint" />
            <Array as="points">
              <mxPoint x="500" y="-400" />
              <mxPoint x="440" y="-440" />
            </Array>
          </mxGeometry>
        </mxCell>
        <mxCell id="o5o4gVOaaan3RhJ73Huu-18" value="" style="endArrow=none;html=1;rounded=0;exitX=0.5;exitY=0;exitDx=0;exitDy=0;entryX=0.5;entryY=0;entryDx=0;entryDy=0;" parent="1" source="o5o4gVOaaan3RhJ73Huu-6" target="o5o4gVOaaan3RhJ73Huu-7" edge="1">
          <mxGeometry width="50" height="50" relative="1" as="geometry">
            <mxPoint x="400" y="-230" as="sourcePoint" />
            <mxPoint x="450" y="-280" as="targetPoint" />
            <Array as="points">
              <mxPoint x="380" y="-440" />
            </Array>
          </mxGeometry>
        </mxCell>
        <mxCell id="o5o4gVOaaan3RhJ73Huu-19" value="Enter his requrirements" style="text;strokeColor=none;align=center;fillColor=none;html=1;verticalAlign=middle;whiteSpace=wrap;rounded=0;" parent="1" vertex="1">
          <mxGeometry x="170" y="-395" width="60" height="30" as="geometry" />
        </mxCell>
        <mxCell id="o5o4gVOaaan3RhJ73Huu-20" value="" style="rounded=1;whiteSpace=wrap;html=1;fillColor=#f8cecc;strokeColor=#b85450;" parent="1" vertex="1">
          <mxGeometry x="160" y="-320" width="80" height="110" as="geometry" />
        </mxCell>
        <mxCell id="o5o4gVOaaan3RhJ73Huu-21" value="Anakyze&amp;nbsp; previous history , weather , constraints" style="text;strokeColor=none;align=left;fillColor=none;html=1;verticalAlign=middle;whiteSpace=wrap;rounded=0;" parent="1" vertex="1">
          <mxGeometry x="170" y="-280" width="60" height="30" as="geometry" />
        </mxCell>
        <mxCell id="o5o4gVOaaan3RhJ73Huu-23" value="" style="rounded=1;whiteSpace=wrap;html=1;fillColor=#e1d5e7;strokeColor=#9673a6;" parent="1" vertex="1">
          <mxGeometry x="50" y="-320" width="80" height="110" as="geometry" />
        </mxCell>
        <mxCell id="o5o4gVOaaan3RhJ73Huu-25" value="Get places and ratings,&lt;div&gt;crowd levels from google places Api&lt;/div&gt;" style="text;strokeColor=none;align=left;fillColor=none;html=1;verticalAlign=middle;whiteSpace=wrap;rounded=0;sketch=1;curveFitting=1;jiggle=2;" parent="1" vertex="1">
          <mxGeometry x="60" y="-280" width="80" height="30" as="geometry" />
        </mxCell>
        <mxCell id="o5o4gVOaaan3RhJ73Huu-27" value="Display places to&amp;nbsp;&lt;span style=&quot;background-color: transparent; color: light-dark(rgb(0, 0, 0), rgb(255, 255, 255));&quot;&gt;user&lt;/span&gt;" style="rounded=1;whiteSpace=wrap;html=1;fillColor=#d5e8d4;strokeColor=#82b366;" parent="1" vertex="1">
          <mxGeometry x="80" y="-150" width="80" height="60" as="geometry" />
        </mxCell>
        <mxCell id="1ehXIUHyFf3prWLtaNW7-1" value="" style="endArrow=none;html=1;rounded=0;entryX=0.5;entryY=1;entryDx=0;entryDy=0;exitX=0.5;exitY=1;exitDx=0;exitDy=0;" parent="1" source="o5o4gVOaaan3RhJ73Huu-20" target="o5o4gVOaaan3RhJ73Huu-23" edge="1">
          <mxGeometry width="50" height="50" relative="1" as="geometry">
            <mxPoint x="400" y="-220" as="sourcePoint" />
            <mxPoint x="450" y="-270" as="targetPoint" />
            <Array as="points">
              <mxPoint x="120" y="-150" />
            </Array>
          </mxGeometry>
        </mxCell>
        <mxCell id="1ehXIUHyFf3prWLtaNW7-4" style="edgeStyle=orthogonalEdgeStyle;rounded=0;orthogonalLoop=1;jettySize=auto;html=1;exitX=0.5;exitY=1;exitDx=0;exitDy=0;" parent="1" source="1ehXIUHyFf3prWLtaNW7-2" edge="1">
          <mxGeometry relative="1" as="geometry">
            <mxPoint x="300" y="-190" as="targetPoint" />
          </mxGeometry>
        </mxCell>
        <mxCell id="1ehXIUHyFf3prWLtaNW7-2" value="Get incomming&amp;nbsp;&lt;div&gt;&lt;span style=&quot;background-color: transparent; color: light-dark(rgb(0, 0, 0), rgb(255, 255, 255));&quot;&gt;SMS from his mobile app&lt;/span&gt;&lt;/div&gt;" style="rounded=1;whiteSpace=wrap;html=1;fillColor=#e1d5e7;strokeColor=#9673a6;" parent="1" vertex="1">
          <mxGeometry x="265" y="-320" width="70" height="110" as="geometry" />
        </mxCell>
        <mxCell id="1ehXIUHyFf3prWLtaNW7-12" value="" style="edgeStyle=orthogonalEdgeStyle;rounded=0;orthogonalLoop=1;jettySize=auto;html=1;" parent="1" source="1ehXIUHyFf3prWLtaNW7-9" target="1ehXIUHyFf3prWLtaNW7-11" edge="1">
          <mxGeometry relative="1" as="geometry" />
        </mxCell>
        <mxCell id="1ehXIUHyFf3prWLtaNW7-9" value="&lt;div style=&quot;&quot;&gt;&lt;span style=&quot;background-color: transparent; color: light-dark(rgb(0, 0, 0), rgb(255, 255, 255));&quot;&gt;Classification of SMS as UPI messages, with smart addition of tags based on the receiver&#39;s name&lt;/span&gt;&lt;/div&gt;" style="rounded=1;whiteSpace=wrap;html=1;align=center;fillColor=#f8cecc;strokeColor=#b85450;" parent="1" vertex="1">
          <mxGeometry x="247.5" y="-190" width="105" height="140" as="geometry" />
        </mxCell>
        <mxCell id="1ehXIUHyFf3prWLtaNW7-11" value="Detalied expense analytics of each trip" style="whiteSpace=wrap;html=1;rounded=1;fillColor=#d5e8d4;strokeColor=#82b366;" parent="1" vertex="1">
          <mxGeometry x="247.5" y="-20" width="102.5" height="70" as="geometry" />
        </mxCell>
        <mxCell id="1ehXIUHyFf3prWLtaNW7-16" value="" style="shape=actor;whiteSpace=wrap;html=1;fillColor=#dae8fc;strokeColor=#6c8ebf;" parent="1" vertex="1">
          <mxGeometry x="392.5" y="-540" width="40" height="60" as="geometry" />
        </mxCell>
        <mxCell id="1ehXIUHyFf3prWLtaNW7-19" style="edgeStyle=orthogonalEdgeStyle;rounded=0;orthogonalLoop=1;jettySize=auto;html=1;entryX=0;entryY=0.25;entryDx=0;entryDy=0;" parent="1" source="1ehXIUHyFf3prWLtaNW7-18" target="o5o4gVOaaan3RhJ73Huu-6" edge="1">
          <mxGeometry relative="1" as="geometry" />
        </mxCell>
        <mxCell id="1ehXIUHyFf3prWLtaNW7-18" value="Voice + Text" style="rounded=1;whiteSpace=wrap;html=1;fillColor=#dae8fc;strokeColor=#6c8ebf;" parent="1" vertex="1">
          <mxGeometry x="60" y="-470" width="100" height="40" as="geometry" />
        </mxCell>
        <mxCell id="1ehXIUHyFf3prWLtaNW7-25" value="" style="edgeStyle=orthogonalEdgeStyle;rounded=0;orthogonalLoop=1;jettySize=auto;html=1;" parent="1" source="1ehXIUHyFf3prWLtaNW7-21" target="1ehXIUHyFf3prWLtaNW7-24" edge="1">
          <mxGeometry relative="1" as="geometry" />
        </mxCell>
        <mxCell id="1ehXIUHyFf3prWLtaNW7-21" value="Assign points based on distance , expenses etc" style="whiteSpace=wrap;html=1;rounded=1;fillColor=#e1d5e7;strokeColor=#9673a6;" parent="1" vertex="1">
          <mxGeometry x="371.25" y="-320" width="67.5" height="110" as="geometry" />
        </mxCell>
        <mxCell id="1ehXIUHyFf3prWLtaNW7-23" style="edgeStyle=orthogonalEdgeStyle;rounded=0;orthogonalLoop=1;jettySize=auto;html=1;exitX=0.5;exitY=1;exitDx=0;exitDy=0;entryX=0.606;entryY=0.043;entryDx=0;entryDy=0;entryPerimeter=0;" parent="1" source="o5o4gVOaaan3RhJ73Huu-8" target="1ehXIUHyFf3prWLtaNW7-21" edge="1">
          <mxGeometry relative="1" as="geometry">
            <Array as="points">
              <mxPoint x="425" y="-360" />
              <mxPoint x="425" y="-340" />
              <mxPoint x="412" y="-340" />
            </Array>
          </mxGeometry>
        </mxCell>
        <mxCell id="1ehXIUHyFf3prWLtaNW7-27" value="" style="edgeStyle=orthogonalEdgeStyle;rounded=0;orthogonalLoop=1;jettySize=auto;html=1;" parent="1" source="1ehXIUHyFf3prWLtaNW7-24" target="1ehXIUHyFf3prWLtaNW7-26" edge="1">
          <mxGeometry relative="1" as="geometry" />
        </mxCell>
        <mxCell id="1ehXIUHyFf3prWLtaNW7-24" value="Assign badges based on points using Ai" style="whiteSpace=wrap;html=1;rounded=1;fillColor=#f8cecc;strokeColor=#b85450;" parent="1" vertex="1">
          <mxGeometry x="371.25" y="-190" width="68.75" height="100" as="geometry" />
        </mxCell>
        <mxCell id="1ehXIUHyFf3prWLtaNW7-26" value="Profile Rankings Page" style="whiteSpace=wrap;html=1;rounded=1;fillColor=#d5e8d4;strokeColor=#82b366;" parent="1" vertex="1">
          <mxGeometry x="371.25" y="-70" width="68.75" height="60" as="geometry" />
        </mxCell>
        <mxCell id="1ehXIUHyFf3prWLtaNW7-32" value="" style="edgeStyle=orthogonalEdgeStyle;rounded=0;orthogonalLoop=1;jettySize=auto;html=1;" parent="1" source="1ehXIUHyFf3prWLtaNW7-28" target="1ehXIUHyFf3prWLtaNW7-31" edge="1">
          <mxGeometry relative="1" as="geometry" />
        </mxCell>
        <mxCell id="1ehXIUHyFf3prWLtaNW7-28" value="Get User Events using api" style="whiteSpace=wrap;html=1;rounded=1;fillColor=#e1d5e7;strokeColor=#9673a6;" parent="1" vertex="1">
          <mxGeometry x="470" y="-320" width="90" height="60" as="geometry" />
        </mxCell>
        <mxCell id="1ehXIUHyFf3prWLtaNW7-30" style="edgeStyle=orthogonalEdgeStyle;rounded=0;orthogonalLoop=1;jettySize=auto;html=1;entryX=0.444;entryY=0.167;entryDx=0;entryDy=0;entryPerimeter=0;" parent="1" source="o5o4gVOaaan3RhJ73Huu-9" target="1ehXIUHyFf3prWLtaNW7-28" edge="1">
          <mxGeometry relative="1" as="geometry" />
        </mxCell>
        <mxCell id="1ehXIUHyFf3prWLtaNW7-34" value="" style="edgeStyle=orthogonalEdgeStyle;rounded=0;orthogonalLoop=1;jettySize=auto;html=1;" parent="1" source="1ehXIUHyFf3prWLtaNW7-31" target="1ehXIUHyFf3prWLtaNW7-33" edge="1">
          <mxGeometry relative="1" as="geometry" />
        </mxCell>
        <mxCell id="1ehXIUHyFf3prWLtaNW7-31" value="Analyze events and get suitable times for travel" style="whiteSpace=wrap;html=1;rounded=1;fillColor=#f8cecc;strokeColor=#b85450;" parent="1" vertex="1">
          <mxGeometry x="470" y="-220" width="90" height="60" as="geometry" />
        </mxCell>
        <mxCell id="1ehXIUHyFf3prWLtaNW7-33" value="Display suitable plans&amp;nbsp;" style="whiteSpace=wrap;html=1;rounded=1;fillColor=#d5e8d4;strokeColor=#82b366;" parent="1" vertex="1">
          <mxGeometry x="470" y="-130" width="90" height="60" as="geometry" />
        </mxCell>
        <mxCell id="1ehXIUHyFf3prWLtaNW7-35" value="Tourist Companies&amp;nbsp;" style="rounded=1;whiteSpace=wrap;html=1;fillColor=#ffe6cc;strokeColor=#d79b00;shadow=1;" parent="1" vertex="1">
          <mxGeometry x="700" y="-375" width="90" height="70" as="geometry" />
        </mxCell>
        <mxCell id="1ehXIUHyFf3prWLtaNW7-38" value="" style="edgeStyle=orthogonalEdgeStyle;rounded=0;orthogonalLoop=1;jettySize=auto;html=1;" parent="1" source="1ehXIUHyFf3prWLtaNW7-36" target="1ehXIUHyFf3prWLtaNW7-37" edge="1">
          <mxGeometry relative="1" as="geometry" />
        </mxCell>
        <mxCell id="1ehXIUHyFf3prWLtaNW7-36" value="Find suitable packages from tour companies" style="rounded=1;whiteSpace=wrap;html=1;fillColor=#f8cecc;strokeColor=#b85450;" parent="1" vertex="1">
          <mxGeometry x="580" y="-320" width="80" height="80" as="geometry" />
        </mxCell>
        <mxCell id="1ehXIUHyFf3prWLtaNW7-37" value="Display to user" style="whiteSpace=wrap;html=1;rounded=1;fillColor=#d5e8d4;strokeColor=#82b366;" parent="1" vertex="1">
          <mxGeometry x="580" y="-200" width="80" height="60" as="geometry" />
        </mxCell>
        <mxCell id="1ehXIUHyFf3prWLtaNW7-42" value="" style="endArrow=none;html=1;rounded=0;exitX=0.25;exitY=1;exitDx=0;exitDy=0;entryX=0;entryY=0.357;entryDx=0;entryDy=0;entryPerimeter=0;" parent="1" source="o5o4gVOaaan3RhJ73Huu-10" target="1ehXIUHyFf3prWLtaNW7-35" edge="1">
          <mxGeometry width="50" height="50" relative="1" as="geometry">
            <mxPoint x="610" y="-310" as="sourcePoint" />
            <mxPoint x="660" y="-360" as="targetPoint" />
            <Array as="points">
              <mxPoint x="620" y="-320" />
            </Array>
          </mxGeometry>
        </mxCell>
        <mxCell id="1ehXIUHyFf3prWLtaNW7-43" value="" style="shape=datastore;whiteSpace=wrap;html=1;fillColor=#dae8fc;strokeColor=#6c8ebf;" parent="1" vertex="1">
          <mxGeometry x="715" y="-435" width="60" height="60" as="geometry" />
        </mxCell>
        <mxCell id="TvqsPF1gacw0Fb4t50jP-1" value="" style="rounded=0;whiteSpace=wrap;html=1;hachureGap=4;fontFamily=Architects Daughter;fontSource=https%3A%2F%2Ffonts.googleapis.com%2Fcss%3Ffamily%3DArchitects%2BDaughter;glass=0;shadow=1;fillColor=#fff2cc;strokeColor=#d6b656;" vertex="1" parent="1">
          <mxGeometry x="500" y="-565" width="50" height="20" as="geometry" />
        </mxCell>
        <mxCell id="TvqsPF1gacw0Fb4t50jP-3" value="User Actions" style="text;strokeColor=none;align=center;fillColor=none;html=1;verticalAlign=middle;whiteSpace=wrap;rounded=0;fontFamily=Architects Daughter;fontSource=https%3A%2F%2Ffonts.googleapis.com%2Fcss%3Ffamily%3DArchitects%2BDaughter;" vertex="1" parent="1">
          <mxGeometry x="550" y="-570" width="100" height="30" as="geometry" />
        </mxCell>
        <mxCell id="TvqsPF1gacw0Fb4t50jP-6" value="" style="rounded=0;whiteSpace=wrap;html=1;hachureGap=4;fontFamily=Architects Daughter;fontSource=https%3A%2F%2Ffonts.googleapis.com%2Fcss%3Ffamily%3DArchitects%2BDaughter;glass=0;shadow=1;fillColor=#e1d5e7;strokeColor=#9673a6;" vertex="1" parent="1">
          <mxGeometry x="500" y="-535" width="50" height="20" as="geometry" />
        </mxCell>
        <mxCell id="TvqsPF1gacw0Fb4t50jP-7" value="Api Services" style="text;strokeColor=none;align=center;fillColor=none;html=1;verticalAlign=middle;whiteSpace=wrap;rounded=0;fontFamily=Architects Daughter;fontSource=https%3A%2F%2Ffonts.googleapis.com%2Fcss%3Ffamily%3DArchitects%2BDaughter;" vertex="1" parent="1">
          <mxGeometry x="550" y="-540" width="100" height="30" as="geometry" />
        </mxCell>
        <mxCell id="TvqsPF1gacw0Fb4t50jP-8" value="" style="rounded=0;whiteSpace=wrap;html=1;hachureGap=4;fontFamily=Architects Daughter;fontSource=https%3A%2F%2Ffonts.googleapis.com%2Fcss%3Ffamily%3DArchitects%2BDaughter;glass=0;shadow=1;fillColor=#f8cecc;strokeColor=#b85450;" vertex="1" parent="1">
          <mxGeometry x="500" y="-505" width="50" height="20" as="geometry" />
        </mxCell>
        <mxCell id="TvqsPF1gacw0Fb4t50jP-9" value="Ai Implementation" style="text;strokeColor=none;align=center;fillColor=none;html=1;verticalAlign=middle;whiteSpace=wrap;rounded=0;fontFamily=Architects Daughter;fontSource=https%3A%2F%2Ffonts.googleapis.com%2Fcss%3Ffamily%3DArchitects%2BDaughter;" vertex="1" parent="1">
          <mxGeometry x="550" y="-510" width="120" height="30" as="geometry" />
        </mxCell>
        <mxCell id="TvqsPF1gacw0Fb4t50jP-10" value="" style="rounded=0;whiteSpace=wrap;html=1;hachureGap=4;fontFamily=Architects Daughter;fontSource=https%3A%2F%2Ffonts.googleapis.com%2Fcss%3Ffamily%3DArchitects%2BDaughter;glass=0;shadow=1;fillColor=#d5e8d4;strokeColor=#82b366;" vertex="1" parent="1">
          <mxGeometry x="500" y="-475" width="50" height="20" as="geometry" />
        </mxCell>
        <mxCell id="TvqsPF1gacw0Fb4t50jP-11" value="Final Pages" style="text;strokeColor=none;align=center;fillColor=none;html=1;verticalAlign=middle;whiteSpace=wrap;rounded=0;fontFamily=Architects Daughter;fontSource=https%3A%2F%2Ffonts.googleapis.com%2Fcss%3Ffamily%3DArchitects%2BDaughter;" vertex="1" parent="1">
          <mxGeometry x="550" y="-480" width="90" height="30" as="geometry" />
        </mxCell>
        <mxCell id="TvqsPF1gacw0Fb4t50jP-12" value="And Much more ..." style="text;strokeColor=#666666;align=center;fillColor=#f5f5f5;html=1;verticalAlign=middle;whiteSpace=wrap;rounded=1;fontFamily=Architects Daughter;fontSource=https%3A%2F%2Ffonts.googleapis.com%2Fcss%3Ffamily%3DArchitects%2BDaughter;fontColor=#333333;shadow=1;sketch=1;curveFitting=1;jiggle=2;" vertex="1" parent="1">
          <mxGeometry x="570" y="-30" width="110" height="30" as="geometry" />
        </mxCell>
      </root>
    </mxGraphModel>
  </diagram>
</mxfile>
